<?xml version="1.0" encoding="utf-8" ?>
<svg xmlns="http://www.w3.org/2000/svg" xmlns:xlink="http://www.w3.org/1999/xlink" width="1974" height="1974">
	<path fill="#007DE9" transform="matrix(-3.85547 4.72159e-16 4.72159e-16 3.85547 1974 -0.00012207)" d="M125.59 325.866C98.4805 325.353 73.7736 307.385 67.4744 280.647C65.5024 272.277 65.8968 263.409 65.8938 254.865L65.8178 149.545C65.7877 119.629 89.5901 94.233 119.127 91.3028C124.27 90.7925 129.445 90.8722 134.606 90.8697L156.179 90.8775L293.858 90.8832C302.228 90.8676 311.24 90.3604 319.47 92.0367C347.684 97.7835 368.329 122.271 368.464 151.248L368.473 250.949C368.471 260.6 368.821 269.992 366.551 279.459C361.466 300.667 344.856 318.591 323.559 324.055C315.678 326.077 307.651 325.882 299.59 325.873L228.583 325.866C225.32 328.998 221.331 331.363 217.743 334.111C214.589 335.877 211.674 338.075 208.711 340.139L157.66 375.38C150.211 380.416 139.076 390.615 129.857 388.578C117.661 385.884 119.007 374.657 120.19 365.343L122.381 349.004C123.378 341.529 123.793 333.135 125.59 325.866ZM125.59 119.808C109.898 121.509 97.9088 131.613 95.558 147.426C94.7031 153.176 95.2429 159.852 95.2425 165.733L95.2439 244.945C95.2406 252.077 94.7235 260.637 95.4882 267.643C96.9409 280.952 108.312 292.431 121.154 295.35C126.962 296.67 133.208 296.284 139.132 296.282L159.076 296.266L155.415 326.277C154.796 331.413 153.772 336.841 153.698 342.002L153.963 341.838C158.902 338.716 163.611 334.877 168.406 331.492L206.878 304.142C220.083 294.839 216.122 296.254 232.312 296.252L258.375 296.266L292.436 296.274C300.029 296.273 310.643 297.054 317.843 295.181C338.326 289.853 339.211 273.148 339.212 256.395L339.203 160.781C339.108 123.339 324.905 119.798 290.904 119.801L168.265 119.804C154.083 119.803 139.755 119.274 125.59 119.808Z"/>
	<path fill="#007DE9" transform="matrix(-3.85547 4.72159e-16 4.72159e-16 3.85547 1974 -0.00012207)" d="M178.613 286.798C183.482 275.331 209.451 231.569 208.778 229.125C206.199 226.298 197.497 227.607 194.084 227.613L172.5 227.632C153.139 227.639 152.706 225.118 164.009 208.384L179.2 185.91C183.169 180.081 198.821 154.342 204.66 152.501C207.178 152.301 209.833 152.49 212.366 152.491L247.324 152.492C267.157 152.496 268.349 153.889 257.329 168.397L246.035 183.337C238.77 192.991 232.22 198.375 249.913 198.293C254.896 198.27 273.714 195.753 273.036 203.263C272.721 206.756 264.647 212.504 262.152 214.694L219.16 251.861C213.14 257.079 207.295 262.469 201.173 267.573C193.761 273.759 186.557 281.411 178.613 286.798Z"/>
	<path fill="#007DE9" transform="matrix(-3.85547 4.72159e-16 4.72159e-16 3.85547 1974 -0.00012207)" d="M389.2 210.219L389.2 184.914C394.448 185.091 399.715 184.752 404.966 185.031C428.59 186.286 446.29 205.72 446.38 229.246L446.388 313.034C446.389 321.359 446.713 329.65 444.718 337.809C438.728 362.31 418.001 373.821 394.293 373.798C394.749 382.309 396.994 396.269 396.427 403.989C395.763 413.018 386.067 419.845 377.487 416.409C371.479 414.003 344.324 393.369 337.791 388.594L323.62 378.416C320.931 376.51 318.238 374.35 315.325 372.804L314.971 372.618L251.748 372.618C239.58 370.097 226.599 368.439 217.743 358.543C221.264 355.318 234.116 346.708 238.462 344.289C248.54 347.757 265.468 346.64 276.455 346.635L308.518 346.636C324.381 346.615 322.328 345.637 335.077 354.659L357.553 370.585C360.781 372.903 363.806 375.609 367.146 377.749L367.43 377.928C364.751 367.881 362.757 357.631 360.453 347.492L386.715 347.501C403.931 347.502 419.314 348.009 419.524 325.668L419.537 237.885C419.56 211.939 414.03 210.145 389.2 210.219Z"/>
</svg>
